<?xml version="1.0" encoding="utf-8"?>
<svg
	version="1.1"
	xmlns="http://www.w3.org/2000/svg"
	xmlns:xlink="http://www.w3.org/1999/xlink"
	x="0px" y="0px"
	width="200.0px" height="200.0px"
	viewBox="0 0 200.0 200.0"
	enable-background="new 0 0 200.0 200.0"
	xml:space="preserve">
<defs>
<filter id="glow0" x="-200%" y="-200%" width="600%" height="600%" >
	<feOffset result="offOut" in="SourceGraphic" dx="-3.0755057E-8" dy="0.7035937" />
	<feGaussianBlur result="blurOut" in="offOut" stdDeviation="0.35179684" />
	<feFlood flood-color="#747474" flood-opacity="1.000" result="flood"/>
	<feComposite in="flood" in2="blurOut" operator="in" result="blendOut0"/>
	<feBlend in="SourceGraphic" in2="blendOut0" mode="normal" />
</filter>

<filter id="glow1" x="-200%" y="-200%" width="600%" height="600%" >
	<feOffset result="offOut" in="SourceGraphic" dx="-3.1334345E-8" dy="0.7168462" />
	<feGaussianBlur result="blurOut" in="offOut" stdDeviation="0.3584231" />
	<feFlood flood-color="#747474" flood-opacity="1.000" result="flood"/>
	<feComposite in="flood" in2="blurOut" operator="in" result="blendOut0"/>
	<feBlend in="SourceGraphic" in2="blendOut0" mode="normal" />
</filter>

<filter id="glow2" x="-200%" y="-200%" width="600%" height="600%" >
	<feOffset result="offOut" in="SourceGraphic" dx="-3.072255E-8" dy="0.70285004" />
	<feGaussianBlur result="blurOut" in="offOut" stdDeviation="0.35142502" />
	<feFlood flood-color="#747474" flood-opacity="1.000" result="flood"/>
	<feComposite in="flood" in2="blurOut" operator="in" result="blendOut0"/>
	<feBlend in="SourceGraphic" in2="blendOut0" mode="normal" />
</filter>

</defs>
	<path
		fill="black"
		stroke="#000000"
		fill-opacity="1.000"
		stroke-opacity="1.000"
		fill-rule="nonzero"
		stroke-width="0.0"
		filter="url(#glow0)"
		stroke-linejoin="miter"
		stroke-linecap="square"
		d="M39.72,128.03L161.28,128.03A4.72 4.72 0 0 1 166.00,132.75L166.00,161.09A4.72 4.72 0 0 1 161.28,165.82L39.72,165.82A4.72 4.72 0 0 1 34.99,161.09L34.99,132.75A4.72 4.72 0 0 1 39.72,128.03z"/>
	<path
		fill="black"
		stroke="#000000"
		fill-opacity="1.000"
		stroke-opacity="1.000"
		fill-rule="nonzero"
		stroke-width="0.0"
		filter="url(#glow1)"
		stroke-linejoin="miter"
		stroke-linecap="square"
		d="M39.89,80.31L161.10,80.31A4.90 4.90 0 0 1 166.00,85.22L166.00,114.64A4.90 4.90 0 0 1 161.10,119.54L39.89,119.54A4.90 4.90 0 0 1 34.99,114.64L34.99,85.22A4.90 4.90 0 0 1 39.89,80.31z"/>
	<path
		fill="#black"
		stroke="#000000"
		fill-opacity="1.000"
		stroke-opacity="1.000"
		fill-rule="nonzero"
		stroke-width="0.0"
		filter="url(#glow2)"
		stroke-linejoin="miter"
		stroke-linecap="square"
		d="M39.71,34.18L161.29,34.18A4.71 4.71 0 0 1 166.00,38.90L166.00,67.18A4.71 4.71 0 0 1 161.29,71.89L39.71,71.89A4.71 4.71 0 0 1 34.99,67.18L34.99,38.90A4.71 4.71 0 0 1 39.71,34.18z"/>
</svg>