<svg width="500" height="500" viewBox="0 0 500 500" fill="none" xmlns="http://www.w3.org/2000/svg">
<path d="M105.5 316.856L67 404.856L159.5 386.356C217 425.356 282.5 425.523 329 404.856C405.5 370.856 444.755 296.239 428.5 219.356C410 131.856 324.5 58.8562 213.5 88.8562C124.5 120.356 70 202.856 105.5 316.856Z" stroke="black" stroke-width="20"/>
<path d="M299.749 348.447C269.808 346.589 177.125 209.376 178.66 184.635C180.362 157.187 214.534 131.254 224.812 167.459C228.722 181.233 224.413 181.963 217.434 197.56C210.454 213.158 267.937 312.112 298.295 307.278C328.653 302.443 317.289 299.885 337.719 309.724C358.149 319.562 331.188 350.397 299.749 348.447Z" fill="black" stroke="black" stroke-width="10"/>
</svg>
